<?xml version="1.0" encoding="utf-8"?>
<!DOCTYPE svg PUBLIC "-//W3C//DTD SVG 1.1//EN" "http://www.w3.org/Graphics/SVG/1.1/DTD/svg11.dtd">
<svg version="1.1" id="background" xmlns="http://www.w3.org/2000/svg" xmlns:xlink="http://www.w3.org/1999/xlink" x="0px" y="0px"
	 viewBox="0 0 596.875 251.154"
	 xml:space="preserve">
<path fill-rule="evenodd" clip-rule="evenodd" fill="none" stroke="#F7F2F9" stroke-width="0.25" stroke-miterlimit="10" d="
	M256.192,196.374c9.202-4.621,23.229,1.576,32.87,3.089c2.138,0.334,18.83-2.314,20.832-3.964
	c6.329-5.211,26.967-1.802,35.496-5.208c11.937-4.772,13.187,19.196,22.946,18.774c1.15-0.05,14.432,1.757,15.259,2.485
	c4.297,3.782-4.847,6.25,4.346,8.863c9.985,2.836,13.444-0.355,22.599,4.247c0.755,0.38,10.199,4.03,11.46,0.557
	c0.337-0.93-14.233-12.925-14.744-12.833c-2.388,0.43-4.778,0.257-7.159,0.181c-2.3-0.074,16.289-19.976,17.105-24.667
	c0.99-5.68,12.434-3.08,14.956-6.774c1.349-1.972,2.585-2.431,3.88-0.004c1.76,3.281,4.684-0.335,1.937-1.859
	c-3.921-2.176-7.783-2.545-12.441-1.909c-1.876,0.257-3.296-4.105-1.94-5.568c1.272-1.373,2.727-2.586,3.942-4.005
	c4.021-4.69,17.622-3.161,24.429-10.004c5.216-5.246,39.167-9.642,38.05,2.337c-0.476,5.115,17.622,7.873,20.88,8.451
	c8.452,1.502,13.631-3.686,14.557-11.847c0.244-2.137,1.337-2.518,2.934-1.331c2.436,1.813,8.33,0.161,9.039,4.384
	c0.196,2.022,0.831,3.855,1.905,5.5c3.148,2.695,9.701,0.856,11.334-2.798c3.049-6.83,16.473-8.398,15.421-15.107
	c-0.892-5.687,19.238-8.857,17.316-10.8c-1.961-1.983-5.311,0.723-6.228-0.985c-0.794-1.474,1.118-1.356,1.688-2.297
	c-3.182-2.11-12.105-9.121-15.949-6.267c-2.947,2.54-6.107,4.766-9.48,6.677c-2.513,0.572-8.188-4.831-10.271-2.351
	c-2.232,2.665,2.456,4.919-0.719,7.375c-4.017,3.107-19.892-2.776-17.865-3.67c1.013-0.446,5.195-0.205,5.25-1.846
	c0.052-1.513-1.027-3.233-2.02-4.567c-2.954-3.979-18.512,4.645-21.022,6.818c-1.948,1.685-3.669,0.849-4.875-0.643
	s6.843-8.292,7.781-10.625c-5.051-0.639-9.521,6.727-14.59,4.866c-6.909-2.537-6.772-17.636-14.485-20.699
	c-7.347-2.918,1.729-4.862,0.742-7.762c-1.671-4.885-13.973,2.21-16.45-0.835c-1.678-2.051,8.469-7.863,9.455-8.555
	c1.756-1.232,1.804,4.506,2.814,4.955c5.729,2.545,1.533-6.989,2.048-8.227c1.914-4.602,25.54,1.657,22.674-7.58
	c-0.611-1.966-3.822,1.661-3.747-1.772c0.202-8.82,36.524-12.438,41.851-14.254c9.27-3.16,24.965-2.743,32.825-8.226
	c6.801-4.744,18.399-0.551,23.924-5.315c0,2.291,0,4.583,0,6.874c-5.771,5.977-11.522,2.06-18.366,2.136
	c-8.814,0.099-20.516,3.85-28.868,6.651c-5.044,1.692-12.073,3.067-15.709,7.408c-3.988,4.76-5.667-4.614-12.132-1.937
	c-6.479,2.683-0.092,6.155-2.849,9.583c-2.613,3.25-8.674,0.893-11.752,5.381c-5.799,8.455-17.935,9.197-17.29,21.765
	c0.825,16.023,22.68,7.148,28.013,14.189c6.607,8.713,34.505,7.107,43.104,2c7.027-4.181,20.472,4.776,25.643,9.508
	c8.316,7.618-10.975,11.086-14.026,13.144c-2.148,1.448-2.334,2.641-0.897,4.495c0.383,0.494,0.77,0.991,1.037,1.559
	c1.081,2.293,0.389,4.348-2.061,4.873c-14.229,3.048-14.146,7.532-25.156,16.114c-2.452,1.911-34.42,14.518-36.876,10.213
	c-0.12-0.209,5.157-17.902-6.189-11.71c-6.433,3.508-15.676,7.965-20.334,13.597c-2.474,2.993-15.854,4.591-17.625,0.481
	c-1.536-3.566-0.175-7.168,3.084-8.935c4.06-2.2,8.263-3.832,12.805-4.788c6.287-1.325,4.938-7.101,4.989-11.912
	c0.03-3.141-1.323-4.664-4.422-4.52c-3.909,0.183-20.46,11.649-23.022,7.928c-0.993-1.442,0.688-2.356,1.19-3.544
	c-1.743-0.341-2.571,0.298-2.755,1.849c-0.402,3.364,0.168,6.894-4.494,6.884c-2.522-0.004-10.52,2.238-12.309,1.583
	c-1.271-0.466-1.449,0.888-1.325,1.834c1.581,1.844,3.451,3.324,5.61,4.441c6.611,9.512-11.494,8.854-15.636,9.453
	c-5.741,0.832-9.731,3.293-8.591,9.856c0.755,4.341-6.9,4.875-9.012,6.884c-1.593,1.513-1.443,2.788,0.566,3.556
	c7.231,2.768,14.726,1.518,22.288,2.499c12.361,1.604,2.942,10.331-3.589,10.919c-5.42,0.488-1.958,5.754-6.478,7.438
	c-6.974,2.596-32.723-3.954-40.249-6.417c-3.693-1.209-3.285-6.668-7.702-8.037c-10.463-3.241-18.885-0.96-23.961-12.601
	c-1.025-2.353-10.271-5.066-12.11-3.239c-0.143,0.141-0.35,0.253-0.547,0.292c-4.051,0.8-4.787,3.775-4.768,7.25
	c-2.554,2.734-17.406,7.104-18.637,1.928c-1.46-6.12,8.954-10.291-8.796-3.407c-14,5.43-30.974-5.643-45.482-4.453
	C258.232,200.072,256.98,199.119,256.192,196.374C258.672,195.129,256.98,199.119,256.192,196.374z"/>
<path fill-rule="evenodd" clip-rule="evenodd" fill="none" stroke="#F7F2F9" stroke-width="0.25" stroke-miterlimit="10" d="
	M454.904,230.74c11.187-0.604,22.865,3.728,34.282,3.768c9.518,0.034,29.809,2.597,38.204-0.643
	c10.002-4.292,23.233-0.197,33.606-3.208c4.85-1.408,7.001-7.348,11.385-3.665c1.481,1.755,7.309,2.223,8.385-0.328
	c0.602-1.425-0.933-2.099-1.867-2.853c-1.569-1.265-1.35-2.26,0.226-3.403c4.007-2.904,12.887-2.89,17.626-4.04
	c0,0.833,0,1.667,0,2.5c-0.146,0.238-8.958,9.038-8.652,8.853c-10.84,6.568-23.556,6.619-36.251,7.218
	c-12.132,0.572-29.428,6.551-41.136,1.596c-4.07-1.722-26.255-0.758-30.542,0.521c-10.324,3.083-22.576-2.453-33.825,0.271
	c-5.115,1.24-6.635,7.633-11.858,9.474c-11.808,4.162-53.597,4.336-62.387-5.434c-3.679-4.096-24.433,1.983-31.638,1.236
	c-9.667-1.002-35.594,0.245-43.109-6.242c0.841-3.639,2.053-4.456,6.336-4.266c3.703,7.644,43.411,9.11,51.236,7.396
	c3.204-14.491,67.812,9.337,80.609,2.5c6.058-4.973,0.414-5.253,2.759-8.984C439.325,231.361,453.233,231.168,454.904,230.74
	C458.456,230.548,452.681,231.31,454.904,230.74z"/>
<path fill-rule="evenodd" clip-rule="evenodd" fill="none" stroke="#F7F2F9" stroke-width="0.25" stroke-miterlimit="10" d="
	M596.75,44.528c-7.985,5.088-19.641,3.126-29.264,5.951c-12.485,3.666-25.46,9.211-38.549,9.036
	c-25.356-0.337-52.262,11.907-73.85,26.254c-6.045,4.024-7.145,19.887-14.701,25.685c4.707,0.317,20.244-0.133,23.89,1.81
	c-7.955,4.447-21.366,3.837-28.692-1.653c-1.184-0.888-0.672-2.025,0.574-2.721c1.354-0.779,3.026-0.448,4.374-1.25
	c-1.605,0.88,5.251-9.215,4.999-8.749c-1.431-1.458-1.206-2.916,0-4.375c0.069-1.248,0.875-1.947,1.874-2.499
	c1.362-1.293-0.433-3.037,0.625-4.374c4.901-9.03,16.574-9.293,23.745-14.372c3.705-5.027,25.334-13.556,31.868-15.622
	c13.27-1.15,27.972-4.771,41.867-5.624c6.116,0.549,20.769-4.556,26.559-7.09c9.105-3.988,11.646-0.383,20.306-2.283
	c1.284-1.14,2.371-2.622,4.375-2.5C596.75,41.612,596.75,43.07,596.75,44.528C595.878,45.083,596.75,43.07,596.75,44.528z"/>
<path fill-rule="evenodd" clip-rule="evenodd" fill="none" stroke="#F7F2F9" stroke-width="0.25" stroke-miterlimit="10" d="
	M596.75,213.868c-2.219,0.782-24.443,5.852-24.969,4.024c-0.109-0.38,21.726-13.711,24.969-13.398
	C596.75,207.62,596.75,210.744,596.75,213.868C591.83,215.602,596.75,210.744,596.75,213.868z"/>
<path fill-rule="evenodd" clip-rule="evenodd" fill="none" stroke="#F7F2F9" stroke-width="0.25" stroke-miterlimit="10" d="
	M543.635,238.23c17.91-1.129,35.537-1.029,53.115-2.491c0,0.833,0,1.666,0,2.499c-4.265,4.633-47.662,4.518-54.531,2.412
	C540.59,238.619,543.336,239.139,543.635,238.23C550.609,237.791,543.336,239.139,543.635,238.23z"/>
<path fill-rule="evenodd" clip-rule="evenodd" fill="none" stroke="#F7F2F9" stroke-width="0.25" stroke-miterlimit="10" d="
	M596.75,180.75c-3.722,0.665-7.557,0.305-11.248,1.249c4.17-5.66,6.26-2.472,11.248-2.499
	C596.75,179.917,596.75,180.333,596.75,180.75C593.029,181.416,596.75,180.333,596.75,180.75z"/>
<path fill-rule="evenodd" clip-rule="evenodd" fill="none" stroke="#F7F2F9" stroke-width="0.25" stroke-miterlimit="10" d="
	M241.093,203.234c-5.649,6.52-13.209,2.698-20.16,5.197c-3.164,0.301-6.294,0.079-9.393-0.667
	c-5.28,0.039-10.288,4.964-15.948,5.456c-10.379,0.896-20.079-4.58-29.535-8.886c-11.118-5.062-21.593-2.375-32.652-5.758
	c-5.53-1.691-2.855,9.152-4.049,10.512c-3.216,3.665-14.845-0.452-18.714-0.634c-14.199-0.666-29.085,5.021-43.57,4.743
	c-10.194-0.196-29.683,0.426-38.194-6.192C23.787,203.05,7.24,196.854,0.72,197.02c0-7.08,0-14.16-0.001-21.239
	c3.188-1.399,12.095,5.799,14.466,7.312c1.465,3.289,3.191,6.436,5.177,9.44c19.715,11.262,39.685,11.839,61.406,12.135
	c7.836,0.107,14.311-5.819,20.284-10.009c7.583-5.319,24.111-4.562,33.276-4.422c13.661,0.209,48.295,20.749,58.433,10.102
	c5.747-6.037,44.217-0.202,45.592-3.207c1.423-3.109,4.5-1.3,6.593-2.322c1.087-0.118,1.938,0.214,2.398,1.274
	C248.584,198.358,241.956,200.42,241.093,203.234C236.765,208.229,241.89,200.635,241.093,203.234z"/>
<path fill-rule="evenodd" clip-rule="evenodd" fill="none" stroke="#F7F2F9" stroke-width="0.25" stroke-miterlimit="10" d="
	M237.499,222.765c0.627-1.535,0.496-2.483-1.525-1.979c-9.166,2.283-11.135,10.224-23.727,7.681
	c-9.421-1.904-23.568,0.153-33.285,0.303c-1.205-0.926-2.501-1.698-3.888-2.316c-8.017,3.086-31.814,2.137-39.277,0.598
	c-9.923-2.048-22.311-1.49-32.59,0.327c-34.759,6.146-68.6-5.331-102.479-9.757c-0.001-0.831-0.002-1.663-0.003-2.494
	c20.229,5.618,41.062,8.092,61.787,10.651c19.695,2.432,37.9-2.408,57.3-3.124c1.848-0.068,16.465,2.155,18.151,2.564
	c7.718,1.876,14.342-3.42,21.645-2.381c4.64,0.66,8.828,3.707,14.359,0.628c5.024-2.799,4.011,4.805,8.949,4.031
	c10.041-1.576,24.171-2.167,34.308-0.623c8.884,1.354,16.717-8.043,26.42-8.011C243.665,220.574,239.616,223.178,237.499,222.765
	C238.126,221.23,239.358,223.128,237.499,222.765z"/>
<path fill-rule="evenodd" clip-rule="evenodd" fill="none" stroke="#F7F2F9" stroke-width="0.25" stroke-miterlimit="10" d="
	M247.481,235.705c0.908,1.875,2.296,2.669,4.473,2.536c1.46-0.089,13.606-1.603,14.011,0.744
	c2.019,11.732-30.736-2.652-25.447-3.285C242.838,235.638,245.158,237.568,247.481,235.705
	C248.389,237.581,245.158,237.568,247.481,235.705z"/>
<path fill-rule="evenodd" clip-rule="evenodd" fill="none" stroke="#F7F2F9" stroke-width="0.25" stroke-miterlimit="10" d="
	M300.482,221.257c2.664-1.193,11.987,1.778,11.667-2.854c-0.283-4.03,10.787-6.896,13.376-7.068
	c0.688,6.027-11.556,1.876-11.482,6.749c0.021,1.5,1.703,0.477,2.5,0.991C313.326,223.881,305.041,222.941,300.482,221.257
	C303.364,219.967,301.726,221.717,300.482,221.257z"/>
<path fill-rule="evenodd" clip-rule="evenodd" fill="none" stroke="#F7F2F9" stroke-width="0.25" stroke-miterlimit="10" d="
	M273.181,205.808c0.022-0.406,0.044-0.812,0.066-1.219c0.27,0.059,4.767-1.642,5.041-1.875c1.72-0.147,3.264,0.433,4.772,1.159
	c1.847,0.604,3.389,1.524,3.767,3.646C285.69,209.04,275.686,205.904,273.181,205.808
	C273.204,205.401,276.961,205.953,273.181,205.808z"/>
<path fill-rule="evenodd" clip-rule="evenodd" fill="none" stroke="#F7F2F9" stroke-width="0.25" stroke-miterlimit="10" d="
	M288.664,222.592c2.814-2.239,6.166-2.632,10.056-1.179C296.344,223.657,291.526,223.025,288.664,222.592
	C288.872,221.57,289.268,222.684,288.664,222.592z"/>
<path fill-rule="evenodd" clip-rule="evenodd" fill="none" stroke="#F7F2F9" stroke-width="0.25" stroke-miterlimit="10" d="
	M464.277,113.264c3.652-1.438,15.454-0.401,17.855,3.76c0.524,0.908,6.027,9.338,6.019,8.624c0.051,4.6,0.4,9.248-1.875,13.533
	c-4.166,7.863-39.926,7.562-45.743,7.827c9.839-7.373,45.486,2.614,46.865-15.622c-4.072-3.293-3.287-9.439-6.12-13.004
	C478.174,114.478,468.633,113.886,464.277,113.264C468.114,111.752,465.498,113.438,464.277,113.264z"/>
<path fill-rule="evenodd" clip-rule="evenodd" fill="none" stroke="#F7F2F9" stroke-width="0.25" stroke-miterlimit="10" d="
	M475.514,185.092c-1.117-0.261-2.883,0.745-3.93-1.045c-0.743-1.273-1.494-2.619-0.829-4.102c0.91-2.027,14.713-5.629,16.18-4.451
	C487.143,175.662,478.542,185.224,475.514,185.092C474.397,184.832,478.503,185.223,475.514,185.092z"/>
<path fill-rule="evenodd" clip-rule="evenodd" fill="none" stroke="#F7F2F9" stroke-width="0.25" stroke-miterlimit="10" d="
	M496.796,172.013c-0.208-0.051-6.394-0.727-6.035-2.509c0.743-3.708,11.16-3.36,11.85-0.728
	C503.013,170.32,497.766,172.167,496.796,172.013C495.209,171.623,497.974,172.201,496.796,172.013z"/>
<path fill-rule="evenodd" clip-rule="evenodd" fill="none" stroke="#F7F2F9" stroke-width="0.25" stroke-miterlimit="10" d="
	M482.388,92.814c-0.428-1.612,0.13-2.664,1.675-3.154c1.559,0.481,2.033,1.494,1.423,3.037c0.491,1.665-0.042,2.809-1.6,3.432
	C482.398,95.503,481.899,94.398,482.388,92.814C482.458,91.412,482.615,94.012,482.388,92.814z"/>
<path fill-rule="evenodd" clip-rule="evenodd" fill="none" stroke="#F7F2F9" stroke-width="0.25" stroke-miterlimit="10" d="
	M521.653,173.885c1.203-0.009,2.393,0.126,2.506,1.637C524.515,180.272,514.891,173.967,521.653,173.885
	C522.856,173.876,520.404,173.9,521.653,173.885z"/>
<path fill-rule="evenodd" clip-rule="evenodd" fill="none" stroke="#F7F2F9" stroke-width="0.25" stroke-miterlimit="10" d="
	M516.762,174.215c-0.389,4.517-2.704-0.838-2.941-1.508C514.846,170.667,515.827,171.169,516.762,174.215
	C516.698,174.965,516.738,172.869,516.762,174.215z"/>
<path fill-rule="evenodd" clip-rule="evenodd" fill="none" stroke="#F7F2F9" stroke-width="0.25" stroke-miterlimit="10" d="
	M487.582,228.573c-3.256-0.937-12.799,2.553-14.727-0.424c-0.636-0.985,0.331-1.464,0.777-2.107
	c3.345-4.812,6.409-5.849,11.786-3.958c3.307,1.162,0.13,4.52,4.279,3.161c1.387-0.455,16.051-2.741,15.683,0.318
	C505.108,227.837,489.375,228.82,487.582,228.573C484.814,227.777,494.584,229.538,487.582,228.573z"/>
<path fill-rule="evenodd" clip-rule="evenodd" fill="none" stroke="#F7F2F9" stroke-width="0.25" stroke-miterlimit="10" d="
	M585.502,182c-1.062,2.183-9.791,1.96-9.991,2.045c-4.057,1.715-3.695-5.519-7.425-3.189c-12.213,7.627-23.638,21.287-36.686,27.044
	c-3.662,0.011-7.025-0.974-10.089-2.954c-5.081-0.055-8.486,4.472-14.235,3.97c-8.258-0.72-15.845-0.024-24.199-0.774
	c-2.364-0.211-21.135,9.029-21.096,8.109c-0.135,3.362-2.404,2.547-3.412,0.183c0.464-1.969-0.033-3.596-1.491-4.881
	c-1.453-0.502-11.279,3.217-11.347,5.441c-2.344-1.889-13.894-13.621-13.161-14.896c3.907-6.802,23.95-2.896,31.123-2.598
	c4.584,0.19,2.555,4.83,2.696,7.825c0.092,1.899,1.239,3.272,3.074,3.313c2.018,0.045,3.988-0.737,6.02,0.427
	c-2.846-1.626,13.5-3.924,13.082-3.896c8.693-0.58,15.933-0.009,24.709-0.393c1.688-0.073,2.859-1.53,3.752-3.024
	c5.768-9.639,10.75,8.527,17.437,0.334c1.157-1.417,9.63-11.147,10.502-10.793c4.401,1.786,26.065-22.244,30.35-16.281
	c1.295,1.803-4.858,5.518,1.105,5.575C579.318,182.615,582.463,183.036,585.502,182C584.807,183.427,582.463,183.036,585.502,182z"
	/>
<path fill-rule="evenodd" clip-rule="evenodd" fill="none" stroke="#F7F2F9" stroke-width="0.25" stroke-miterlimit="10" d="
	M347.425,219.492c-5.067-0.703-8.13,8.116-10.927,7.964c-3.049-0.161-5.737,1.697-8.828,1.442c-3.565-0.295-4.104-1.052-2.564-4.186
	c0.224-0.454,0.305-0.979,0.45-1.471c0.664,0.881,1.141,2.517,2.499,0.625C333.951,225.262,344.176,216.392,347.425,219.492
	C344.773,219.124,345.423,217.582,347.425,219.492z"/>
<path fill-rule="evenodd" clip-rule="evenodd" fill="none" stroke="#F7F2F9" stroke-width="0.25" stroke-miterlimit="10" d="
	M388.043,227.615c-4.98,0-9.965-0.106-14.938,0.045c-5.462,0.167-6.517-8.691-12.183-4.475c-3.593,2.673-11.299-0.436-13.497-3.694
	c2.884,0.014,4.83,2.243,7.37,3.119c4.441,1.531,5.248-4.373,6.787-3.605c3.674,1.836,8.286,8.186,12.291,8.024
	C376.421,226.926,386.012,225.441,388.043,227.615C383.063,227.615,387.208,226.721,388.043,227.615z"/>
<path fill-rule="evenodd" clip-rule="evenodd" fill="none" stroke="#F7F2F9" stroke-width="0.25" stroke-miterlimit="10" d="
	M0.68,114.509c0.004-0.833,0.008-1.667,0.011-2.5c5.141-4.493,22.428-0.708,28.817-2.225c2.319-0.55,4.812-6.531,7.942-3.22
	c3.374,3.572,10.615,2.779,13.392-1.136c6.451-9.097,28.735-7.542,38.53-8.426c12.656-1.142,26.193,5.388,38.349,9.244
	c17.872,5.677,17.199-6.075,30.463-10.149c4.658-1.431,27.991,4.838,32.938,6.703c9.311,3.513,24.006-5.629,33.266-6.272
	c5.672-0.395,10.042,2.268,16.194,1.096c2.47-2.064,5.06-3.969,7.769-5.713c3.177,0.935,6.371,1.805,9.583,2.609
	c6.519-0.18,2.2,1.96,4.589,5.489c2.513-1.643,4.909-3.442,7.188-5.396c4.297-0.631,8.621-0.78,12.971-0.448
	c21.593-2.194,5.728,14.166-0.945,19.11c-0.734,0.544,19.359,14.723,23.358,16.192c16.389,6.019,34.764-4.403,50.392-0.124
	c11.649,3.19,21.939,6.578,33.758,7.43c14.698,1.06,30.706-1.19,45.333,1.479c2.9,0.531,3.453,1.73,2.592,4.287
	c-3.197,8.402-11.017,11.206-19.809,12.359c-2.041,0.268-7.039,6.06-7.283,7.852c-0.648,4.755-7.941,2.861-11.184,5.278
	c-4.096,3.061-7.451-0.204-5.156-4.663c0.805-1.566,2.486-2.449,3.294-3.95c-9.693-5.372-15.686-1.019-24.676-0.248
	c-11.701,1.004-22.409-4.231-34.218-4.789c-7.793-0.37-57.355,22.549-56.273,5.888c-6.913,4.536-16.367,3.084-24.245,7.051
	c-9.854,4.962-19.337,7.381-30.193,8.52c-1.502,0.157-2.146-0.81-2.261-2.335c-0.706-9.417,25.983-10.409,19.371-24.895
	c-3.101-6.794-46.075-13.856-53.7-14.979c-4.827-0.713-3.103,5.716-6.464,4.604c-4.106-1.354-7.242-2.928-11.514-4.022
	c-2.091-0.535-36.744,13.539-37.459,15.542c0.959,0.954,1.885,1.94,2.776,2.958c-4.845,3.402-9.715-3.302-15.658-0.626
	c-9.377,4.225-8.495-2.865-0.615-6.461c5.582-2.547,17.985-7.817,23.824-8.478c9.173-1.041,15.061-11.496,23.561-13.69
	c7.12-1.838,15.887-8.602,23.495-7.309c6.572,1.117,2.204,9.488,11.714,9.244c13.548-0.348,28.269,9.481,42.276,5.173
	c5.068-1.557,9.08,0.367,10.983,5.303c1.304,3.382,6.622,3.966,9.713,3.628c0.451-1.63-4.693-2.255-3.885-5.923
	c1.469-6.676,22.335-0.748,20.64-7.819c-0.894-3.733-18.904,5.625-22.312-1.67c-6.782-14.523-26.616-2.579-36.964-9.292
	c-7.704-4.997-15.731-10.025-26.817-5.909c-5.689,2.113-26.381,0.417-32.127-3.264c-6.172-3.954-21.613,6.215-29.719,5.782
	c-12.953-0.693-21.277-5.842-33.047-9.38c-13.792-4.146-32.419-0.281-44.82,6.344c-10.553,5.639-22.126,5.932-32.937,10.278
	C24.275,119.125,2.26,116.147,0.68,114.509C0.684,113.675,2.965,116.878,0.68,114.509z"/>
<path fill-rule="evenodd" clip-rule="evenodd" fill="none" stroke="#F7F2F9" stroke-width="0.25" stroke-miterlimit="10" d="
	M474.236,0.245c-3.099,6-59.898,8.882-65.543,7.101c-1.735-0.547-45.371,9.827-35.612,18.804c1.592,1.462,2.68,3.452,4.601,4.568
	c5.555,3.224,1.688,20.743-2.476,19.107c-0.097-0.038-19.838,0.51-18.76-0.144c0.993-0.603,0.08,14.697-2.93,7.605
	c-0.307-0.722-1.769-6.246-1.99-6.294c-1.966,0.736-2.873,2.139-2.722,4.207c-1.369-6.389-6.117-1.808-9.823-5.129
	c-7.329-6.554-7.87,16.239-11.111,14.664c-7.846-3.824-45.127-5.936-50.139,3.436c-0.448,2.571-0.82,5.152-1.118,7.743
	c-2.913,3.102-6.629-1.44-8.868,4.521c-2.103,5.602-23.199-0.08-28.244,1.05c-9.864,2.208-18.558,2.977-27.96,5.945
	c-6.801,2.147-15.8,0.982-21.766,3.279c-1.667-0.143-2.741-1.036-3.219-2.679c-3.034-3.578-7.767,1.965-10.83,2.345
	c-10.276,1.273-17.984-5.158-28.438,1.981c-5.166,3.527-4.046-3.213-8.23-2.791c-4.008,0.404-8.045,13.415-13.48,7.52
	c-4.446-4.822-9.339,2.785-14.78-1.088c-8.111-5.774-18.048-6.657-27.635-5.292c-27.531,3.93-54.979,12.281-82.454,9.423
	c0.002-3.123,0.005-6.246,0.007-9.369c7.85-3.774,20.531,1.833,29.113,0.106c8.264-1.663,15.23-8.372,23.266-10.968
	c9.853-3.183,22.772,2.054,31.477-0.752c6.446-2.077,6.695,3.254,12.168,5.26c7.641,2.798,16.758,1.761,24.706,3.931
	c4.842,1.319,17.212-6.675,23.629-6.052c12.704,1.232,25.317-3.427,37.554-2.871c5.916,0.269,13.792,5.869,19.667,1.973
	c4.759-3.157,16.157-5.091,21.774-4.124c6.982,1.201,9.138-6.027,15.2-7.435c6.702-1.556,11.761,4.621,19.018,2.791
	c21.18-5.343,28.283-33.449,53.654-32.886c10.686,0.238,19.326-11.53,26.174-18.039c4.144-3.938,10.192-4.748,8.479-11.658
	c-1.404-5.665-1.105-6.682,4.066-9.408c0.184-0.096,0.338-0.241,0.501-0.372C392.188,0.254,433.212,0.111,474.236,0.245
	C473.66,1.361,466.011,0.218,474.236,0.245z"/>
<path fill-rule="evenodd" clip-rule="evenodd" fill="none" stroke="#F7F2F9" stroke-width="0.25" stroke-miterlimit="10" d="
	M259.303,0.26c-2.818,4.979,5.482,7.18-0.235,12.095c-2.488,2.138-7.126,14.73-4.072,17.072c5.122,3.926,15.581,1.677,18.764,6.431
	c-4.003-5.977,27.738,0.933,11.859,6.784c-4.196,1.547-34.176,15.399-25.653,19.542c-5.772,0.7-7.733,3.802-12.504,0.559
	c-5.905-4.01,4.352-3.351,1.856-7.893c-6.323-11.515-19.701,10.045-20.344,15.938c-0.161,1.472-11.935,2.535-12.727,2.602
	c-3.955-0.064-7.795,0.566-11.521,1.891c-8.928,4.83-12.807-1.551-21.262-1.638c-13.122-0.135-19.318,5.91-33.354-0.817
	c1.561,0.75-15.701,1.506-15.152,1.03c-11.055,9.614-36.597,3.634-48.134-1.123c-8.194-3.379-39.447-9.75-46.363-5.313
	c-1.79,1.142-1.768,6.842-7.38,9.866c-11.819,6.368-18.605,6.562-32.363,5.35c0.001-3.968,0.003-7.935,0.005-11.902
	c18.093-18.791,56.345-7.076,79.457-11.517c13.346-2.564,25.041,10.205,39.165,2.19c7.999-4.544,25.458,0.519,34.289,0.639
	c16.03,0.219,33.658,4.878,48.826-2.34c-0.283,0.135,13.904-3.668,12.232-3.522c6.483-0.569,1.555-11.508,3.07-14.641
	c1.574-3.256,10.572-6.763,11.344-8.734c-0.203,0.518-10.34-8.195-5.04-12.364c5.102-3.968-5.107-8.437-5.33-8.774
	c-1.214-1.831,2.431-2.009,1.531-3.833c-0.59-1.197-3.748-0.177-3.519-1.891c0.504-3.789,7.23,0.416,7.963-2.131
	c-0.996-1.023-1.756-2.206-2.278-3.548C234.723,0.262,247.013,0.261,259.303,0.26C258.009,2.546,247.013,0.261,259.303,0.26z"/>
<path fill-rule="evenodd" clip-rule="evenodd" fill="none" stroke="#F7F2F9" stroke-width="0.25" stroke-miterlimit="10" d="
	M84.315,0.265c-1.389,1.124-2.669,2.359-3.84,3.706c-0.466,8.514,25.524,10.059,29.721,9.41c2.276-0.352,17.257-7.822,16.201-0.797
	c-1.135,7.522,7.295-8.118,8.457-1.648c0.82,1.979,0.774,3.947-0.136,5.905c-3.589,5.975,4.776,4.19,4.614,8.492
	c0.045-1.195,6.37,21.489-2.297,14.062c-8.771-7.524-26.844,1.484-36.245,0.823c-13.502-0.944-21.471-1.806-33.193-7.857
	c-2.439-1.259-15.572-2.236-13.21,3.508c2.889,7.041-7.388,7.194-8.187,10.534c-8.276,0-17.429,3.312-24.882,6.778
	c-6.017,2.798-13.771,0.687-20.592,4.427C0.713,51.132-1.591,0.111,2.907,0.125C30.043,0.206,57.179,0.229,84.315,0.265
	C83.527,2.107,57.179,0.229,84.315,0.265z"/>
<path fill-rule="evenodd" clip-rule="evenodd" fill="none" stroke="#F7F2F9" stroke-width="0.25" stroke-miterlimit="10" d="
	M0.684,128.269c7.399,1.727,14.519-5.374,22.029-5.522c2.575-0.996,4.654-0.353,6.237,1.928c2.756,5.708,4.379-1.607,7.229-0.549
	c0.91,0.337,10.529,11.172,10.49,12.536c-0.298,10.338,20.982,18.66,29.53,19.787c4.605,0.608,17.91,4.389,21.144,8.253
	c11.114,13.281,21.539-11.592,33.361-2.547c8.081,6.183,25.308,8.294,32.938-0.36c2.458-2.788,3.11-9.457-3.814-8.495
	c-3.645,1.582-7.348,1.984-11.109,1.205c8.224-8.556,30.679,1.989,18.01,12.016c-7.98,6.316-29.435,8.864-37.809,2.003
	c-7.741-6.352-27.198,7.451-39.33,3.954c-9.789-2.822-21.972-10.32-31.358-15.006c-7.089-3.538-13.052-8.847-18.431-14.577
	c-3.125-3.33-9.767-2.852-13.592-5.654c-6.46-4.73-19.117,0.42-25.517-5.845C0.689,130.353,0.686,129.311,0.684,128.269
	C7.001,129.743,0.686,129.311,0.684,128.269z"/>
<path fill-rule="evenodd" clip-rule="evenodd" fill="none" stroke="#F7F2F9" stroke-width="0.25" stroke-miterlimit="10" d="
	M0.727,237.621c4.673,1.141,17.646-1.82,22.492-2.296c9.948-0.979,20.65,2.606,30.754,1.76c20.194-1.691,41.041,8.248,62.257,4.912
	c-6.108,11.635-51.842-0.259-63.344-1.5c-9.922-1.071-25.829-3.643-35.55-0.896c-2.388,0.676-14.285,3.078-16.613,0.532
	C0.724,239.295,0.725,238.458,0.727,237.621C4.034,238.428,0.725,238.458,0.727,237.621z"/>
<path fill-rule="evenodd" clip-rule="evenodd" fill="none" stroke="#F7F2F9" stroke-width="0.25" stroke-miterlimit="10" d="
	M383.032,0.254c-1.517,2.507-2.834,2.507-4.35,0C380.132,0.254,381.582,0.254,383.032,0.254z"/>
<path fill-rule="evenodd" clip-rule="evenodd" fill="none" stroke="#F7F2F9" stroke-width="0.25" stroke-miterlimit="10" d="
	M567.337,185.733c4.643,0.553-2.348,5.07-2.272,1.746C565.399,186.33,566.157,185.749,567.337,185.733
	C568.272,185.844,566.561,186.093,567.337,185.733z"/>
<path fill-rule="evenodd" clip-rule="evenodd" fill="none" stroke="#F7F2F9" stroke-width="0.25" stroke-miterlimit="10" d="
	M532.384,241.353c1.197-2.405,3.371-0.768,5.04-1.215c-0.017,0.405-0.035,0.81-0.054,1.215
	C535.708,241.38,534.046,241.381,532.384,241.353C533.582,238.948,533.422,242.068,532.384,241.353z"/>
<path fill-rule="evenodd" clip-rule="evenodd" fill="none" stroke="#F7F2F9" stroke-width="0.25" stroke-miterlimit="10" d="
	M477.399,250.109c6.899-5.055,28.999-7.968,36.872-3.756c-4.763,0.208-9.408,0.836-13.773,3.002
	c-3.658,1.816-9.746-5.866-11.31-2.327C486.371,253.414,482.406,250.283,477.399,250.109
	C479.083,248.875,477.917,250.127,477.399,250.109z"/>
<path fill-rule="evenodd" clip-rule="evenodd" fill="none" stroke="#F7F2F9" stroke-width="0.25" stroke-miterlimit="10" d="
	M514.889,246.354c2.415-1.269,5.009-0.323,7.503-0.613C519.979,247.026,517.383,246.063,514.889,246.354z"/>
<path fill-rule="evenodd" clip-rule="evenodd" fill="none" stroke="#F7F2F9" stroke-width="0.25" stroke-miterlimit="10" d="
	M371.781,87.599c0.767,5.542-10.104,3.125-11.008,1.223C360.859,89.003,372.168,81.877,371.781,87.599
	C371.989,89.103,371.861,86.417,371.781,87.599z"/>
<path fill-rule="evenodd" clip-rule="evenodd" fill="none" stroke="#F7F2F9" stroke-width="0.25" stroke-miterlimit="10" d="
	M294.943,175.707c2.989-0.744,5.776-0.479,8.36,0.797c0.413,3.168-13.282,5.615-11.732,0.175
	C291.95,175.353,293.489,175.85,294.943,175.707C296.899,176.249,293.489,175.85,294.943,175.707z"/>
<path fill-rule="evenodd" clip-rule="evenodd" fill="none" stroke="#F7F2F9" stroke-width="0.25" stroke-miterlimit="10" d="
	M371.697,99.617c-0.367,2.799-5.326,1.776-5.196-1C366.691,94.575,372.112,94.963,371.697,99.617
	C371.666,99.855,371.945,96.837,371.697,99.617z"/>
<path fill-rule="evenodd" clip-rule="evenodd" fill="none" stroke="#F7F2F9" stroke-width="0.25" stroke-miterlimit="10" d="
	M362.599,92.08c2.087-0.121,2.794,0.813,2.793,2.029C365.392,100.328,356.641,92.625,362.599,92.08
	C364.686,91.959,361.846,92.148,362.599,92.08z"/>
<path fill-rule="evenodd" clip-rule="evenodd" fill="none" stroke="#F7F2F9" stroke-width="0.25" stroke-miterlimit="10" d="
	M88.841,151.382c-8.797-0.055-23.726-15.549-31.502-19.723c-24.747-13.264,5.181-17.391,16.354-20.55
	c17.277-4.888,29.241-1.668,45.277,0.468c9.535,1.271,19.265,4.328,29.002,2.9c-0.534,0.079,25.791-6.001,17.486,1.719
	c-9.681,8.992-30.009,19.678-43.287,21.229C110.13,138.833,99.638,150.782,88.841,151.382
	C85.059,151.358,90.396,151.295,88.841,151.382z"/>
<path fill-rule="evenodd" clip-rule="evenodd" fill="none" stroke="#F7F2F9" stroke-width="0.25" stroke-miterlimit="10" d="
	M130.544,27.065c-1.334,0.082-2.289-0.474-2.864-1.666c0.176-1.293,6.26-1.589,6.333,0.065
	C133.369,26.938,132.212,27.472,130.544,27.065C130.164,26.987,132.198,26.981,130.544,27.065z"/>
<path fill-rule="evenodd" clip-rule="evenodd" fill="none" stroke="#F7F2F9" stroke-width="0.25" stroke-miterlimit="10" d="
	M128.728,29.4c1.446-0.622,2.914-0.622,4.714-0.197C131.742,30.616,130.253,30.259,128.728,29.4z"/>
<path fill-rule="evenodd" clip-rule="evenodd" fill="none" stroke="#F7F2F9" stroke-width="0.25" stroke-miterlimit="10" d="
	M296.857,116.39c-0.916-0.107-2.303,0.114-2.195-1.345c0.124-1.663,4.689-1.756,4.745-0.274
	C299.074,116.063,298.224,116.604,296.857,116.39C295.941,116.283,298.102,116.364,296.857,116.39z"/>
<path fill-rule="evenodd" clip-rule="evenodd" fill="none" stroke="#F7F2F9" stroke-width="0.25" stroke-miterlimit="10" d="
	M328.045,100.723c0.208,1.974-3.935,10.265-6.402,6.949C318.351,103.248,327.075,92.404,328.045,100.723
	C328.219,102.371,327.9,99.476,328.045,100.723z"/>
<path fill-rule="evenodd" clip-rule="evenodd" fill="none" stroke="#F7F2F9" stroke-width="0.25" stroke-miterlimit="10" d="
	M316.681,97.816c0.203-0.147,6.695-4.98,6.796-1.725C323.527,97.727,317.302,98.057,316.681,97.816
	C318.605,96.419,319.138,98.771,316.681,97.816z"/>
</svg>
